<?xml version="1.0" encoding="UTF-8" standalone="no"?>
<!-- Created with Inkscape (http://www.inkscape.org/) -->

<svg
   xmlns:dc="http://purl.org/dc/elements/1.1/"
   xmlns:cc="http://creativecommons.org/ns#"
   xmlns:rdf="http://www.w3.org/1999/02/22-rdf-syntax-ns#"
   xmlns:svg="http://www.w3.org/2000/svg"
   xmlns="http://www.w3.org/2000/svg"
   xmlns:xlink="http://www.w3.org/1999/xlink"
   xmlns:sodipodi="http://sodipodi.sourceforge.net/DTD/sodipodi-0.dtd"
   xmlns:inkscape="http://www.inkscape.org/namespaces/inkscape"
   width="129.95288mm"
   height="42.205421mm"
   viewBox="0 0 460.46296 149.54677"
   id="svg2"
   version="1.1"
   inkscape:version="0.91 r13725"
   sodipodi:docname="rowlogo.svg"
   inkscape:export-filename="C:\Users\sdlyn\Downloads\rowlogo.png"
   inkscape:export-xdpi="90"
   inkscape:export-ydpi="90">
  <defs
     id="defs4">
    <pattern
       patternUnits="userSpaceOnUse"
       width="307.59375"
       height="107.94860"
       patternTransform="translate(155.0499,334.9930)"
       id="pattern2116">
      <path
         style="fill:#000000;fill-opacity:1.0000000;fill-rule:evenodd;stroke:none;stroke-width:1.0000000px;stroke-linecap:butt;stroke-linejoin:miter;stroke-opacity:1.0000000"
         d="M 190.54992,335.14922 C 188.24806,335.97942 188.40653,336.06645 186.36242,336.96172 C 182.21678,338.77745 178.51921,340.74055 175.23742,342.89922 C 162.11026,351.53381 155.77627,363.09226 155.04992,378.27422 L 155.04992,378.30547 L 155.04992,378.33672 C 156.86244,395.30335 163.88814,407.93612 177.48742,417.18047 C 191.08670,426.42482 211.19595,432.31353 239.20617,436.11797 C 267.21638,439.92242 303.13934,441.62543 348.39367,442.36797 C 371.02083,442.73924 395.99033,442.88953 423.45617,442.93047 C 437.18894,442.95094 447.38547,442.93831 462.39367,442.93047 L 462.39367,441.93047 C 447.38559,441.93831 437.18806,441.95094 423.45617,441.93047 C 395.99267,441.88953 371.04396,441.73910 348.42492,441.36797 C 303.18684,440.62570 267.29877,438.94363 239.36242,435.14922 C 211.42606,431.35481 191.43364,425.43454 178.04992,416.33672 C 164.68307,407.25037 157.84959,395.02118 156.04992,378.30547 C 156.05043,378.29478 156.04940,378.28490 156.04992,378.27422 C 156.04879,378.26367 156.05105,378.25353 156.04992,378.24297 C 156.77869,363.34401 162.90800,352.22283 175.79992,343.74297 C 179.02751,341.61995 182.66713,339.66438 186.76867,337.86797 C 188.84815,336.95721 188.62247,336.90586 190.89367,336.08672 M 191.23742,334.99297 L 190.26867,335.39922 C 190.43128,335.81001 190.62659,336.05023 190.76867,336.21172 C 190.91075,336.37321 190.98843,336.44000 191.14367,336.74297 C 192.60709,339.59890 194.65155,342.26338 197.23742,344.71172 C 202.40916,349.60841 209.72760,353.70204 219.04992,357.18047 C 237.69456,364.13732 264.30384,368.57924 297.36242,371.39922 C 330.42098,374.21919 369.93941,375.42069 414.45617,375.93047 C 425.58755,376.05794 450.91432,376.22079 462.64367,376.27422 L 462.64367,375.24297 C 450.91778,375.18955 425.58015,374.99536 414.45617,374.86797 C 369.95146,374.35832 330.43800,373.15281 297.42492,370.33672 C 264.41182,367.52062 237.89846,363.10473 219.42492,356.21172 C 210.18815,352.76521 202.97947,348.68662 197.95617,343.93047 C 195.44452,341.55241 193.48353,339.01099 192.08117,336.27422 C 191.87819,335.87810 191.67153,335.66244 191.54992,335.52422 M 461.83117,375.68047 L 460.83117,375.68047 L 461.20617,441.99297 L 462.20617,441.99297 L 461.83117,375.68047"
         id="path2118"
         sodipodi:nodetypes="ccccccccccccccccccccccccccccccccccccccccccc"
         transform="translate(-155.0499,-334.9930)" />
    </pattern>
  </defs>
  <sodipodi:namedview
     id="base"
     pagecolor="#ffffff"
     bordercolor="#666666"
     borderopacity="1.0"
     inkscape:pageopacity="0.0"
     inkscape:pageshadow="2"
     inkscape:zoom="1.979899"
     inkscape:cx="173.84877"
     inkscape:cy="169.17694"
     inkscape:document-units="px"
     inkscape:current-layer="layer1"
     showgrid="false"
     inkscape:window-width="1920"
     inkscape:window-height="1027"
     inkscape:window-x="1358"
     inkscape:window-y="-8"
     inkscape:window-maximized="1"
     fit-margin-top="5"
     fit-margin-left="5"
     fit-margin-right="5"
     fit-margin-bottom="5" />
  <metadata
     id="metadata7">
    <rdf:RDF>
      <cc:Work
         rdf:about="">
        <dc:format>image/svg+xml</dc:format>
        <dc:type
           rdf:resource="http://purl.org/dc/dcmitype/StillImage" />
        <dc:title></dc:title>
      </cc:Work>
    </rdf:RDF>
  </metadata>
  <g
     inkscape:label="Layer 1"
     inkscape:groupmode="layer"
     id="layer1"
     transform="translate(34.889247,-506.59853)">
    <ellipse
       style="fill:#0095ff;fill-opacity:1;stroke:none;stroke-width:3;stroke-miterlimit:4;stroke-dasharray:none;stroke-opacity:1"
       id="path4244"
       cx="195.35715"
       cy="458.43365"
       rx="212.50002"
       ry="20.357141" />
    <path
       inkscape:connector-curvature="0"
       id="path8791"
       d="m 371.79982,396.06807 -181.07345,0 0,63.54689 181.07345,0 0,-63.54689 z"
       style="fill:none;stroke:none" />
    <path
       id="path8793"
       d="m 35.240378,398.21037 c 2.590357,6.57182 7.522183,10.11635 16.041456,13.96269 10.846109,4.89685 26.35284,8.01478 45.659283,10.00751 19.306433,1.99273 42.402843,2.84048 68.415343,3.20094 6.50311,0.0901 13.19756,0.165 20.05182,0.20235 1.71355,0.009 3.67407,0.0115 5.40847,0.0184 0.82106,0.004 0.89621,-0.003 1.63726,0 0.0416,1.5e-4 0.0456,-1.5e-4 0.092,0 0.74105,-0.003 0.81619,0.004 1.63726,0 1.73439,-0.007 3.69491,-0.009 5.40847,-0.0184 6.85425,-0.0374 13.5487,-0.11225 20.05182,-0.20235 26.0125,-0.36046 49.10888,-1.20821 68.41534,-3.20094 19.30644,-1.99273 34.81316,-5.11066 45.65928,-10.00751 8.51927,-3.84634 13.45109,-7.39087 16.04146,-13.96269 -1.74652,1.07795 -3.26132,1.78893 -5.758,2.81461 -9.79585,4.37394 -23.87687,6.63226 -41.42817,8.44384 -17.55131,1.81158 -38.54974,2.59731 -62.19743,2.92499 -11.82386,0.16384 -24.31368,0.2111 -37.36261,0.22076 -1.63112,10e-4 -3.01652,-5.9e-4 -4.26791,0 -1.2514,5.9e-4 -2.37764,-1.2e-4 -3.51367,0 -1.11331,10e-5 -1.48103,5.9e-4 -2.70424,0 -0.0257,10e-6 -0.0302,-1e-5 -0.0552,0 -1.22321,5.9e-4 -1.59093,10e-5 -2.70423,0 -1.13603,-1.2e-4 -2.26228,5.9e-4 -3.51367,0 -1.25139,-5.9e-4 -2.63679,10e-4 -4.26791,0 -13.04894,-0.01 -25.53876,-0.0569 -37.36261,-0.22076 -23.64772,-0.32768 -44.646125,-1.11341 -62.197438,-2.92499 -17.551314,-1.81158 -31.613925,-4.0699 -41.409768,-8.44384 -2.496669,-1.02568 -4.029879,-1.73666 -5.776396,-2.81461 z"
       style="fill:#74ffcf;fill-opacity:1;fill-rule:evenodd;stroke:none;stroke-width:2.59017992;stroke-linecap:butt;stroke-linejoin:miter;stroke-miterlimit:4;stroke-opacity:1"
       inkscape:connector-curvature="0" />
    <path
       inkscape:connector-curvature="0"
       id="rect2120"
       d="m 13.203656,396.06807 181.073454,0 0,63.54689 -181.073454,0 0,-63.54689 z"
       style="fill:none;stroke:none" />
    <text
       xml:space="preserve"
       style="font-style:normal;font-weight:normal;font-size:40px;line-height:125%;font-family:sans-serif;letter-spacing:0px;word-spacing:0px;fill:#000000;fill-opacity:1;stroke:none;stroke-width:1px;stroke-linecap:butt;stroke-linejoin:miter;stroke-opacity:1"
       x="59.877449"
       y="418.40826"
       id="text3336"
       sodipodi:linespacing="125%"><tspan
         sodipodi:role="line"
         id="tspan3338"
         x="59.877449"
         y="418.40826"
         style="font-style:normal;font-variant:normal;font-weight:normal;font-stretch:normal;font-family:Georgia;-inkscape-font-specification:Georgia">ROW</tspan></text>
    <text
       xml:space="preserve"
       style="font-style:normal;font-weight:normal;font-size:40px;line-height:125%;font-family:sans-serif;letter-spacing:0px;word-spacing:0px;fill:#000000;fill-opacity:1;stroke:none;stroke-width:1px;stroke-linecap:butt;stroke-linejoin:miter;stroke-opacity:1"
       x="44.232399"
       y="247.32738"
       id="text3340"
       sodipodi:linespacing="125%"><tspan
         sodipodi:role="line"
         id="tspan3342"
         x="44.232399"
         y="247.32738"
         style="font-style:normal;font-variant:normal;font-weight:normal;font-stretch:normal;font-size:20px;font-family:Garamond;-inkscape-font-specification:Garamond">Foundation</tspan></text>
    <text
       xml:space="preserve"
       style="font-style:normal;font-weight:normal;font-size:40px;line-height:125%;font-family:sans-serif;letter-spacing:0px;word-spacing:0px;fill:#000000;fill-opacity:1;stroke:none;stroke-width:1px;stroke-linecap:butt;stroke-linejoin:miter;stroke-opacity:1"
       x="159.16063"
       y="410.54007"
       id="text3344"
       sodipodi:linespacing="125%"><tspan
         sodipodi:role="line"
         id="tspan3346"
         x="159.16063"
         y="410.54007"
         style="font-style:italic;font-variant:normal;font-weight:normal;font-stretch:normal;font-size:20px;font-family:Garamond;-inkscape-font-specification:'Garamond Italic'">Mending Our Water Ways</tspan></text>
    <text
       xml:space="preserve"
       style="font-style:normal;font-weight:normal;font-size:40px;line-height:125%;font-family:sans-serif;letter-spacing:0px;word-spacing:0px;fill:#000000;fill-opacity:1;stroke:none;stroke-width:1px;stroke-linecap:butt;stroke-linejoin:miter;stroke-opacity:1"
       x="40.684551"
       y="227.48943"
       id="text4217"
       sodipodi:linespacing="125%"><tspan
         sodipodi:role="line"
         id="tspan4219"
         x="40.684551"
         y="227.48943"
         style="font-style:normal;font-variant:normal;font-weight:normal;font-stretch:normal;font-family:Georgia;-inkscape-font-specification:Georgia">ROW</tspan></text>
    <text
       sodipodi:linespacing="125%"
       id="text4209"
       y="418.40826"
       x="59.877449"
       style="font-style:normal;font-weight:normal;font-size:40px;line-height:125%;font-family:sans-serif;letter-spacing:0px;word-spacing:0px;fill:#000000;fill-opacity:1;stroke:none;stroke-width:1px;stroke-linecap:butt;stroke-linejoin:miter;stroke-opacity:1"
       xml:space="preserve"><tspan
         style="font-style:normal;font-variant:normal;font-weight:normal;font-stretch:normal;font-family:Georgia;-inkscape-font-specification:Georgia"
         y="418.40826"
         x="59.877449"
         id="tspan4211"
         sodipodi:role="line">ROW</tspan></text>
    <text
       xml:space="preserve"
       style="font-style:normal;font-weight:normal;font-size:40px;line-height:125%;font-family:sans-serif;letter-spacing:0px;word-spacing:0px;fill:#000000;fill-opacity:1;stroke:none;stroke-width:1px;stroke-linecap:butt;stroke-linejoin:miter;stroke-opacity:1"
       x="139.96773"
       y="219.62123"
       id="text4221"
       sodipodi:linespacing="125%"><tspan
         sodipodi:role="line"
         id="tspan4223"
         x="139.96773"
         y="219.62123"
         style="font-style:italic;font-variant:normal;font-weight:normal;font-stretch:normal;font-size:20px;font-family:Garamond;-inkscape-font-specification:'Garamond Italic'">Mending Our Water Ways</tspan></text>
    <text
       sodipodi:linespacing="125%"
       id="text4213"
       y="410.54007"
       x="159.16063"
       style="font-style:normal;font-weight:normal;font-size:40px;line-height:125%;font-family:sans-serif;letter-spacing:0px;word-spacing:0px;fill:#000000;fill-opacity:1;stroke:none;stroke-width:1px;stroke-linecap:butt;stroke-linejoin:miter;stroke-opacity:1"
       xml:space="preserve"><tspan
         style="font-style:italic;font-variant:normal;font-weight:normal;font-stretch:normal;font-size:20px;font-family:Garamond;-inkscape-font-specification:'Garamond Italic'"
         y="410.54007"
         x="159.16063"
         id="tspan4215"
         sodipodi:role="line">Mending Our Water Ways</tspan></text>
    <g
       id="g4205">
      <path
         id="path2890"
         d="m 33.511719,399.40625 c -1.184819,0.43287 -1.157636,0.49565 -2.335938,1.01172 -2.414484,1.05751 -4.558987,2.20921 -6.458984,3.45898 -7.589181,4.9919 -11.196001,11.53792 -11.625,20.3086 5.89e-4,0.006 -5.88e-4,0.0133 0,0.0195 -3.06e-4,0.006 2.89e-4,0.0113 0,0.0176 1.059425,9.84016 5.082399,17.03974 12.951172,22.38867 7.878692,5.35568 19.646285,8.84054 36.091797,11.07422 16.445495,2.23369 37.572482,3.22319 64.203124,3.66015 13.31531,0.21848 28.00277,0.30793 44.16992,0.33203 7.67493,0.0114 13.62944,0.005 21.76172,0 0.17185,-1e-4 0.28705,10e-5 0.46094,0 8.13228,0.005 14.0868,0.0114 21.76172,0 16.16715,-0.0241 30.8546,-0.11355 44.16992,-0.33203 26.63061,-0.43696 47.75763,-1.42646 64.20312,-3.66015 16.44549,-2.23368 28.21311,-5.71854 36.0918,-11.07422 7.86875,-5.34893 11.89174,-12.54851 12.95117,-22.38867 -3.1e-4,-0.006 3.1e-4,-0.0113 0,-0.0176 5.9e-4,-0.006 -5.9e-4,-0.0133 0,-0.0195 -0.42902,-8.77068 -4.03777,-15.3167 -11.62695,-20.3086 -1.90002,-1.24977 -4.04255,-2.40147 -6.45703,-3.45898 -1.17833,-0.51607 -1.15112,-0.57885 -2.33594,-1.01172 -0.006,0.007 -0.0115,0.0302 -0.0176,0.0371 -0.0836,0.0951 -0.12932,0.13415 -0.2207,0.3125 -0.8615,1.68122 -2.06564,3.25013 -3.58789,4.69141 -3.04449,2.88257 -7.352,5.29217 -12.83984,7.33984 -0.37985,0.14173 -0.77889,0.27781 -1.16993,0.41601 -10.84303,4.87999 -26.32585,7.98782 -45.59375,9.97657 -19.30646,1.99273 -42.40156,2.84071 -68.41406,3.20117 -6.50312,0.0901 -13.19848,0.16572 -20.05273,0.20312 -1.71356,0.009 -3.67382,0.0106 -5.40821,0.0176 -0.82107,0.004 -0.89566,-0.003 -1.63671,0 -0.0464,-1.5e-4 -0.0522,1.5e-4 -0.0938,0 -0.74105,-0.003 -0.81565,0.004 -1.63671,0 -1.7344,-0.007 -3.69466,-0.009 -5.40821,-0.0176 -6.85426,-0.0374 -13.54767,-0.11302 -20.05078,-0.20312 -26.0125,-0.36046 -49.10958,-1.20844 -68.416014,-3.20117 -19.2679,-1.98875 -34.750725,-5.09658 -45.59375,-9.97657 -0.391038,-0.1382 -0.790077,-0.27428 -1.169922,-0.41601 -5.487839,-2.04767 -9.795369,-4.45727 -12.839843,-7.33984 -1.522243,-1.44128 -2.726421,-3.01019 -3.587891,-4.69141 -0.09139,-0.17835 -0.137076,-0.21743 -0.220703,-0.3125 -0.0061,-0.007 -0.01122,-0.0296 -0.01758,-0.0371 z"
         style="fill:#006e41;fill-opacity:1;fill-rule:evenodd;stroke:none;stroke-width:1px;stroke-linecap:butt;stroke-linejoin:miter;stroke-opacity:1"
         inkscape:connector-curvature="0" />
      <path
         sodipodi:nodetypes="csc"
         inkscape:connector-curvature="0"
         id="path4203"
         d="m 34.345186,398.54097 c 19.445437,29.16815 113.151774,25.83928 170.179134,27.02158 56.48218,1.171 140.06396,-5.6821 146.25115,-27.52665"
         style="fill:none;fill-rule:evenodd;stroke:#ffffff;stroke-width:3;stroke-linecap:butt;stroke-linejoin:miter;stroke-miterlimit:4;stroke-dasharray:none;stroke-opacity:1" />
    </g>
    <text
       sodipodi:linespacing="125%"
       id="text4229"
       style="font-style:normal;font-weight:normal;font-size:40px;line-height:125%;font-family:sans-serif;text-align:start;letter-spacing:0px;word-spacing:0px;text-anchor:start;fill:#ffffff;fill-opacity:0.69411765;stroke:none;stroke-width:1px;stroke-linecap:butt;stroke-linejoin:miter;stroke-opacity:1"
       xml:space="preserve"
       x="35.823929"
       y="0"><textPath
         xlink:href="#path4233"
         id="textPath4235"><tspan
   id="tspan4231"
   style="font-style:normal;font-variant:normal;font-weight:normal;font-stretch:normal;font-size:35px;font-family:Garamond;-inkscape-font-specification:Garamond;text-align:start;text-anchor:start;fill:#ffffff;fill-opacity:0.69411765">          Foundation</tspan></textPath></text>
    <path
       style="fill:none;fill-rule:evenodd;stroke:none;stroke-width:1px;stroke-linecap:butt;stroke-linejoin:miter;stroke-opacity:1"
       d="m 29.391594,431.42123 c 27.274119,18.68782 98.392706,26.31038 171.186816,25.42649 72.79412,-0.88388 141.3149,-7.18246 159.75019,-24.35506"
       id="path4233"
       inkscape:connector-curvature="0"
       sodipodi:nodetypes="csc" />
    <path
       sodipodi:nodetypes="csccscccsccsccccc"
       d="m 101.24029,400.71046 c 0,0 -2.963598,2.41375 -1.773782,2.89006 1.677262,0.67145 3.276562,2.85037 3.276562,2.85037 l -58.753445,50.37734 c -8.732762,-2.90316 -25.519768,6.83795 -35.9172134,17.56071 -1.020002,1.05191 -1.020302,1.87905 -0.803921,2.51501 l 6.7490984,7.61811 6.429222,7.89239 c 0.595496,0.3109 1.412987,0.43682 2.608241,-0.4107 12.183882,-8.63929 24.37271,-23.74311 22.83624,-32.81663 l 58.753448,-50.37734 c 0,0 1.90934,1.9131 2.31696,3.67318 0.28916,1.24857 3.12691,-1.31195 3.12691,-1.31195 l -1.94482,-2.89009 -2.10698,-2.66447 -2.4568,-2.62177 z"
       style="fill:#74ffcf;fill-opacity:1;stroke:none;stroke-width:0.2043687px;stroke-linecap:butt;stroke-linejoin:miter;stroke-opacity:1"
       id="path2989-1-4-2-4"
       inkscape:connector-curvature="0" />
    <path
       style="fill:#0095ff;fill-opacity:1;stroke:none;stroke-width:3;stroke-miterlimit:4;stroke-dasharray:none;stroke-opacity:1"
       d="m 407.85716,592.71936 c -1e-5,11.24294 -95.1395,20.35714 -212.50001,20.35714 -29.34013,0 -58.30159,1.45067 -84.22982,2.94592 -25.401811,1.46489 -54.924704,21.09598 -84.213126,22.40634 -29.4060463,-0.17304 -44.861148,-18.59423 -44.057072,-45.7094 -6e-6,-18.81908 95.139503,-20.35714 212.500018,-20.35714 117.36051,0 212.5,9.1142 212.50001,20.35714 z"
       id="ellipse4259"
       inkscape:connector-curvature="0"
       sodipodi:nodetypes="sssccss" />
    <path
       style="fill:none;stroke:none"
       d="m 371.79982,530.35378 -181.07345,0 0,63.54689 181.07345,0 0,-63.54689 z"
       id="path4261"
       inkscape:connector-curvature="0" />
    <path
       inkscape:connector-curvature="0"
       style="fill:#74ffcf;fill-opacity:1;fill-rule:evenodd;stroke:none;stroke-width:2.59017992;stroke-linecap:butt;stroke-linejoin:miter;stroke-miterlimit:4;stroke-opacity:1"
       d="m 35.240378,532.49608 c 2.590357,6.57182 7.522183,10.11635 16.041456,13.96269 10.846109,4.89685 26.35284,8.01478 45.659283,10.00751 19.306433,1.99273 42.402843,2.84048 68.415343,3.20094 6.50311,0.0901 13.19756,0.165 20.05182,0.20235 1.71355,0.009 3.67407,0.0115 5.40847,0.0184 0.82106,0.004 0.89621,-0.003 1.63726,0 0.0416,1.5e-4 0.0456,-1.5e-4 0.092,0 0.74105,-0.003 0.81619,0.004 1.63726,0 1.73439,-0.007 3.69491,-0.009 5.40847,-0.0184 6.85425,-0.0374 13.5487,-0.11225 20.05182,-0.20235 26.0125,-0.36046 49.10888,-1.20821 68.41534,-3.20094 19.30644,-1.99273 34.81316,-5.11066 45.65928,-10.00751 8.51927,-3.84634 13.45109,-7.39087 16.04146,-13.96269 -1.74652,1.07795 -3.26132,1.78893 -5.758,2.81461 -9.79585,4.37394 -23.87687,6.63226 -41.42817,8.44384 -17.55131,1.81158 -38.54974,2.59731 -62.19743,2.92499 -11.82386,0.16384 -24.31368,0.2111 -37.36261,0.22076 -1.63112,0.001 -3.01652,-5.9e-4 -4.26791,0 -1.2514,5.9e-4 -2.37764,-1.2e-4 -3.51367,0 -1.11331,1e-4 -1.48103,5.9e-4 -2.70424,0 -0.0257,1e-5 -0.0302,-10e-6 -0.0552,0 -1.22321,5.9e-4 -1.59093,1e-4 -2.70423,0 -1.13603,-1.2e-4 -2.26228,5.9e-4 -3.51367,0 -1.25139,-5.9e-4 -2.63679,0.001 -4.26791,0 -13.04894,-0.01 -25.53876,-0.0569 -37.36261,-0.22076 -23.64772,-0.32768 -44.646125,-1.11341 -62.197438,-2.92499 -17.551314,-1.81158 -31.613925,-4.0699 -41.409768,-8.44384 -2.496669,-1.02568 -4.029879,-1.73666 -5.776396,-2.81461 z"
       id="path4263" />
    <path
       style="fill:none;stroke:none"
       d="m 13.203656,530.35378 181.073454,0 0,63.54689 -181.073454,0 0,-63.54689 z"
       id="path4265"
       inkscape:connector-curvature="0" />
    <text
       sodipodi:linespacing="125%"
       id="text4267"
       y="552.69397"
       x="59.877449"
       style="font-style:normal;font-weight:normal;font-size:40px;line-height:125%;font-family:sans-serif;letter-spacing:0px;word-spacing:0px;fill:#000000;fill-opacity:1;stroke:none;stroke-width:1px;stroke-linecap:butt;stroke-linejoin:miter;stroke-opacity:1"
       xml:space="preserve"><tspan
         style="font-style:normal;font-variant:normal;font-weight:normal;font-stretch:normal;font-family:Georgia;-inkscape-font-specification:Georgia"
         y="552.69397"
         x="59.877449"
         id="tspan4269"
         sodipodi:role="line">ROW</tspan></text>
    <text
       sodipodi:linespacing="125%"
       id="text4271"
       y="544.82581"
       x="159.16063"
       style="font-style:normal;font-weight:normal;font-size:40px;line-height:125%;font-family:sans-serif;letter-spacing:0px;word-spacing:0px;fill:#000000;fill-opacity:1;stroke:none;stroke-width:1px;stroke-linecap:butt;stroke-linejoin:miter;stroke-opacity:1"
       xml:space="preserve"><tspan
         style="font-style:italic;font-variant:normal;font-weight:normal;font-stretch:normal;font-size:20px;font-family:Garamond;-inkscape-font-specification:'Garamond Italic'"
         y="544.82581"
         x="159.16063"
         id="tspan4273"
         sodipodi:role="line">Mending Our Water Ways</tspan></text>
    <text
       xml:space="preserve"
       style="font-style:normal;font-weight:normal;font-size:40px;line-height:125%;font-family:sans-serif;letter-spacing:0px;word-spacing:0px;fill:#000000;fill-opacity:1;stroke:none;stroke-width:1px;stroke-linecap:butt;stroke-linejoin:miter;stroke-opacity:1"
       x="59.877449"
       y="552.69397"
       id="text4275"
       sodipodi:linespacing="125%"><tspan
         sodipodi:role="line"
         id="tspan4277"
         x="59.877449"
         y="552.69397"
         style="font-style:normal;font-variant:normal;font-weight:normal;font-stretch:normal;font-family:Georgia;-inkscape-font-specification:Georgia">ROW</tspan></text>
    <text
       xml:space="preserve"
       style="font-style:normal;font-weight:normal;font-size:40px;line-height:125%;font-family:sans-serif;letter-spacing:0px;word-spacing:0px;fill:#000000;fill-opacity:1;stroke:none;stroke-width:1px;stroke-linecap:butt;stroke-linejoin:miter;stroke-opacity:1"
       x="159.16063"
       y="544.82581"
       id="text4279"
       sodipodi:linespacing="125%"><tspan
         sodipodi:role="line"
         id="tspan4281"
         x="159.16063"
         y="544.82581"
         style="font-style:italic;font-variant:normal;font-weight:normal;font-stretch:normal;font-size:20px;font-family:Garamond;-inkscape-font-specification:'Garamond Italic'">Mending Our Water Ways</tspan></text>
    <g
       id="g4283"
       transform="translate(0,134.28571)">
      <path
         style="fill:#006e41;fill-opacity:1;fill-rule:evenodd;stroke:none;stroke-width:1px;stroke-linecap:butt;stroke-linejoin:miter;stroke-opacity:1"
         d="m 33.511719,399.40625 c -1.184819,0.43287 -1.157636,0.49565 -2.335938,1.01172 -2.414484,1.05751 -4.558987,2.20921 -6.458984,3.45898 -7.589181,4.9919 -11.196001,11.53792 -11.625,20.3086 5.89e-4,0.006 -5.88e-4,0.0133 0,0.0195 -3.06e-4,0.006 2.89e-4,0.0113 0,0.0176 1.059425,9.84016 5.082399,17.03974 12.951172,22.38867 7.878692,5.35568 19.646285,8.84054 36.091797,11.07422 16.445495,2.23369 37.572482,3.22319 64.203124,3.66015 13.31531,0.21848 28.00277,0.30793 44.16992,0.33203 7.67493,0.0114 13.62944,0.005 21.76172,0 0.17185,-1e-4 0.28705,10e-5 0.46094,0 8.13228,0.005 14.0868,0.0114 21.76172,0 16.16715,-0.0241 30.8546,-0.11355 44.16992,-0.33203 26.63061,-0.43696 47.75763,-1.42646 64.20312,-3.66015 16.44549,-2.23368 28.21311,-5.71854 36.0918,-11.07422 7.86875,-5.34893 11.89174,-12.54851 12.95117,-22.38867 -3.1e-4,-0.006 3.1e-4,-0.0113 0,-0.0176 5.9e-4,-0.006 -5.9e-4,-0.0133 0,-0.0195 -0.42902,-8.77068 -4.03777,-15.3167 -11.62695,-20.3086 -1.90002,-1.24977 -4.04255,-2.40147 -6.45703,-3.45898 -1.17833,-0.51607 -1.15112,-0.57885 -2.33594,-1.01172 -0.006,0.007 -0.0115,0.0302 -0.0176,0.0371 -0.0836,0.0951 -0.12932,0.13415 -0.2207,0.3125 -0.8615,1.68122 -2.06564,3.25013 -3.58789,4.69141 -3.04449,2.88257 -7.352,5.29217 -12.83984,7.33984 -0.37985,0.14173 -0.77889,0.27781 -1.16993,0.41601 -10.84303,4.87999 -26.32585,7.98782 -45.59375,9.97657 -19.30646,1.99273 -42.40156,2.84071 -68.41406,3.20117 -6.50312,0.0901 -13.19848,0.16572 -20.05273,0.20312 -1.71356,0.009 -3.67382,0.0106 -5.40821,0.0176 -0.82107,0.004 -0.89566,-0.003 -1.63671,0 -0.0464,-1.5e-4 -0.0522,1.5e-4 -0.0938,0 -0.74105,-0.003 -0.81565,0.004 -1.63671,0 -1.7344,-0.007 -3.69466,-0.009 -5.40821,-0.0176 -6.85426,-0.0374 -13.54767,-0.11302 -20.05078,-0.20312 -26.0125,-0.36046 -49.10958,-1.20844 -68.416014,-3.20117 -19.2679,-1.98875 -34.750725,-5.09658 -45.59375,-9.97657 -0.391038,-0.1382 -0.790077,-0.27428 -1.169922,-0.41601 -5.487839,-2.04767 -9.795369,-4.45727 -12.839843,-7.33984 -1.522243,-1.44128 -2.726421,-3.01019 -3.587891,-4.69141 -0.09139,-0.17835 -0.137076,-0.21743 -0.220703,-0.3125 -0.0061,-0.007 -0.01122,-0.0296 -0.01758,-0.0371 z"
         id="path4285"
         inkscape:connector-curvature="0" />
      <path
         style="fill:none;fill-rule:evenodd;stroke:#ffffff;stroke-width:3;stroke-linecap:butt;stroke-linejoin:miter;stroke-miterlimit:4;stroke-dasharray:none;stroke-opacity:1"
         d="m 34.345186,398.54097 c 19.445437,29.16815 113.151774,25.83928 170.179134,27.02158 56.48218,1.171 140.06396,-5.6821 146.25115,-27.52665"
         id="path4287"
         inkscape:connector-curvature="0"
         sodipodi:nodetypes="csc" />
    </g>
    <text
       y="0"
       x="35.823929"
       xml:space="preserve"
       style="font-style:normal;font-weight:normal;font-size:40px;line-height:125%;font-family:sans-serif;text-align:start;letter-spacing:0px;word-spacing:0px;text-anchor:start;fill:#ffffff;fill-opacity:0.69411765;stroke:none;stroke-width:1px;stroke-linecap:butt;stroke-linejoin:miter;stroke-opacity:1"
       id="text4289"
       sodipodi:linespacing="125%"
       transform="translate(0,134.28571)"><textPath
         id="textPath4291"
         xlink:href="#path4233"><tspan
   style="font-style:normal;font-variant:normal;font-weight:normal;font-stretch:normal;font-size:35px;font-family:Garamond;-inkscape-font-specification:Garamond;text-align:start;text-anchor:start;fill:#ffffff;fill-opacity:0.69411765"
   id="tspan4293">          Foundation</tspan></textPath></text>
    <path
       sodipodi:nodetypes="csc"
       inkscape:connector-curvature="0"
       id="path4295"
       d="m 29.391594,565.70694 c 27.274119,18.68782 98.392706,26.31038 171.186816,25.42649 72.79412,-0.88388 141.3149,-7.18246 159.75019,-24.35506"
       style="fill:none;fill-rule:evenodd;stroke:none;stroke-width:1px;stroke-linecap:butt;stroke-linejoin:miter;stroke-opacity:1" />
    <path
       inkscape:connector-curvature="0"
       id="path4297"
       style="fill:#74ffcf;fill-opacity:1;stroke:none;stroke-width:0.2043687px;stroke-linecap:butt;stroke-linejoin:miter;stroke-opacity:1"
       d="m 101.24029,534.99617 c 0,0 -2.963598,2.41375 -1.773782,2.89006 1.677262,0.67145 3.276562,2.85037 3.276562,2.85037 l -58.753445,50.37734 c -8.732762,-2.90316 -25.519768,6.83795 -35.9172134,17.56071 -1.020002,1.05191 -1.020302,1.87905 -0.803921,2.51501 l 6.7490984,7.61811 6.429222,7.89239 c 0.595496,0.3109 1.412987,0.43682 2.608241,-0.4107 12.183882,-8.63929 24.37271,-23.74311 22.83624,-32.81663 l 58.753448,-50.37734 c 0,0 1.90934,1.9131 2.31696,3.67318 0.28916,1.24857 3.12691,-1.31195 3.12691,-1.31195 l -1.94482,-2.89009 -2.10698,-2.66447 -2.4568,-2.62177 z"
       sodipodi:nodetypes="csccscccsccsccccc" />
    <path
       style="fill:#0095ff;fill-opacity:1;fill-rule:evenodd;stroke:none;stroke-width:1px;stroke-linecap:butt;stroke-linejoin:miter;stroke-opacity:1"
       d="m 5.0507627,621.53214 36.3654913,0 -19.64358,11.34123 z"
       id="path4300"
       inkscape:connector-curvature="0" />
  </g>
</svg>
